<svg xmlns="http://www.w3.org/2000/svg" viewBox="0 0 1024 1024" width="1024" height="1024">
  <!-- Top half of torn paper -->
  <path d="
    M 184 143
    L 716 143
    L 839 266
    L 839 471
    L 757 511
    L 685 450
    L 614 511
    L 532 461
    L 450 522
    L 368 461
    L 276 511
    L 184 471
    Z
  " fill="white"/>

  <!-- Fold corner transparent -->
  <path d="M 716 143 L 839 143 L 839 266 Z" fill="transparent"/>

  <!-- Fold flap -->
  <path d="M 716 143 L 839 266 L 716 266 Z" fill="#888780"/>

  <!-- Bottom half of torn paper -->
  <path d="
    M 184 553
    L 276 614
    L 368 532
    L 450 593
    L 532 543
    L 614 583
    L 685 532
    L 757 583
    L 839 543
    L 839 881
    L 184 881
    Z
  " fill="white"/>
</svg>
